<?xml version="1.0" standalone="no"?>
<svg xmlns="http://www.w3.org/2000/svg" viewBox="0 0 71 29" width="71" height="29"><path fill="#008736" fill-rule="nonzero" d="M4.37 9.43L4.37 9.43L4.90 6.79L6.38 7.49Q7.30 6.34 7.30 4.49L7.30 4.49Q7.30 4.01 6.73 3.43Q6.17 2.86 4.98 2.86Q3.79 2.86 3.36 3.38Q2.93 3.91 2.93 5.38L2.93 5.38L0 5.38Q0 2.62 1.26 1.31Q2.52 0 5.06 0L5.06 0Q10.30 0 10.30 4.46L10.30 4.46Q10.30 7.08 8.71 8.71L8.71 8.71Q10.54 9.74 10.54 12.62L10.54 12.62Q10.54 14.86 9.11 16.12Q7.68 17.38 5.11 17.38Q2.54 17.38 1.28 16.06Q0.02 14.74 0.02 12.53L0.02 12.53L3.07 12.53Q3.07 12.94 3.18 13.33Q3.29 13.73 3.74 14.12Q4.20 14.52 5.20 14.52Q6.19 14.52 6.80 13.88Q7.42 13.25 7.42 12.46L7.42 12.46Q7.42 11.62 7.12 11.23Q6.82 10.85 6.67 10.67Q6.53 10.49 6.13 10.27Q5.74 10.06 5.59 9.97Q5.45 9.89 4.96 9.68Q4.46 9.48 4.37 9.43ZM24 14.26L24 17.23L18.91 17.23Q16.03 17.23 14.75 16.12Q13.46 15 13.46 12.48L13.46 12.48L13.46 0.14L16.80 0.14L16.80 12.48Q16.80 13.49 17.26 13.87Q17.71 14.26 18.91 14.26L18.91 14.26L24 14.26Z" transform="translate(0, 5.813)"></path><line x1="33" y1="2%" x2="33" y2="98%" stroke="#008736" stroke-linecap="round"></line><g fill="#1F1F1F" color="#1F1F1F" transform="translate(42 0) scale(0.5576924)"><svg width="52.0" height="52.0" x="0.0" y="0.0" viewBox="0 0 52 52"><path fill="currentColor" fill-rule="evenodd" d="M18.22 33.35s9.278 9.366 25.673 11.515a26.024 26.024 0 0 1-4.652 3.512l-.054.034a25.875 25.875 0 0 1-13.82 3.58 26.054 26.054 0 0 1-4.701-.545c-.167-.035-.333-.078-.5-.116-2.487-6.099-2.5-12.173-2.247-15.465.12-1.574.301-2.515.301-2.515zM15.745 22.9S12.273 35.616 18.61 50.89a26.12 26.12 0 0 1-5.368-2.273l-.055-.03A25.865 25.865 0 0 1 3.175 38.408a26.147 26.147 0 0 1-1.878-4.343c-.054-.163-.099-.328-.15-.492 4.038-5.202 9.293-8.25 12.27-9.678 1.423-.683 2.328-.997 2.328-.997zm35.536-2.96c.445 1.86.695 3.795.716 5.786l.002.064a25.868 25.868 0 0 1-3.81 13.76 26.134 26.134 0 0 1-2.821 3.797c-.115.127-.235.249-.352.374-6.524-.895-11.79-3.921-14.516-5.786-1.302-.892-2.026-1.517-2.026-1.517S41.223 33.065 51.28 19.94zM6.983 8.25c6.525.895 11.792 3.922 14.517 5.786 1.302.89 2.026 1.517 2.026 1.517S10.778 18.904.718 32.028a26.047 26.047 0 0 1-.715-5.784L0 26.181A25.871 25.871 0 0 1 3.81 12.42a26.18 26.18 0 0 1 2.822-3.797c.114-.128.235-.25.351-.375zM33.39 1.07a26.021 26.021 0 0 1 5.368 2.272l.055.03a25.864 25.864 0 0 1 10.012 10.18 25.98 25.98 0 0 1 1.878 4.342c.053.163.098.327.149.492-4.038 5.203-9.292 8.25-12.27 9.678-1.422.682-2.327.997-2.327.997s3.471-12.719-2.865-27.991zM26.134 0l.503.007c1.582.04 3.157.221 4.7.545.167.036.333.079.5.117 2.487 6.098 2.499 12.172 2.247 15.465-.12 1.573-.301 2.515-.301 2.515S24.506 9.283 8.11 7.135a26.1 26.1 0 0 1 4.651-3.513c.019-.01.036-.023.055-.033A25.877 25.877 0 0 1 26.637.009z"></path></svg></g></svg>