<?xml version="1.0" standalone="no"?>
<svg xmlns="http://www.w3.org/2000/svg" viewBox="0 0 171.16188235294118 48" width="171.16188235294118" height="48">
    <rect fill="none" stroke="#ccc" stroke-width="3" width="168.16188235294118" height="45" x="1.5" y="1.5"></rect>
    <g fill="#008736" color="#008736" transform="translate(12, 12) scale(0.4705883)">
        <svg width="44.0" height="51.0" x="0.0" y="0.0" viewBox="0 0 44 51">
            <path fill="currentColor" fill-rule="evenodd" d="M21.986 0L44 12.704v25.393L22.029 50.801.014 38.111 0 12.718 21.986 0zM22 7.428L6.43 16.425V34.42l15.599 8.996 15.555-9.01-.014-17.994L22 7.428zm-.001 5.403l10.907 6.302v12.561l-10.907 6.302-10.893-6.288-.015-12.575L22 12.83z"></path>
        </svg>
    </g>
    <path fill="#008736" fill-rule="nonzero" d="M16.13 5.40L10.73 5.40L10.73 17.69L5.42 17.69L5.42 5.40L0 5.40L0 1.18L16.13 1.18L16.13 5.40ZM24.89 4.70Q25.44 4.70 25.87 4.84Q26.30 4.97 26.30 4.99L26.30 4.99L26.30 9.00L24.77 9.00Q23.28 9.00 22.62 9.77Q21.96 10.54 21.96 12.05L21.96 12.05L21.96 17.69L17.18 17.69L17.18 5.02L21.10 5.02L21.41 6.94Q21.84 5.83 22.78 5.27Q23.71 4.70 24.89 4.70L24.89 4.70ZM32.78 3.53L28.01 3.53L28.01 0.29L32.78 0.29L32.78 3.53ZM32.78 17.69L28.01 17.69L28.01 5.02L32.78 5.02L32.78 17.69ZM42.10 4.73Q45 4.73 46.82 5.70Q48.65 6.67 48.65 8.86L48.65 8.86L48.65 13.80Q48.65 14.21 48.84 14.47Q49.03 14.74 49.42 14.74L49.42 14.74L50.28 14.74L50.28 17.50Q50.21 17.54 49.91 17.65Q49.61 17.76 49.06 17.87Q48.50 17.98 47.78 17.98L47.78 17.98Q46.39 17.98 45.49 17.56Q44.59 17.14 44.26 16.39L44.26 16.39Q43.34 17.11 42.22 17.54Q41.09 17.98 39.58 17.98L39.58 17.98Q35.11 17.98 35.11 14.42L35.11 14.42Q35.11 12.58 36.11 11.60Q37.10 10.63 38.98 10.27Q40.85 9.91 43.87 9.91L43.87 9.91L43.87 9.29Q43.87 8.54 43.36 8.16Q42.84 7.78 42.02 7.78L42.02 7.78Q41.28 7.78 40.74 8.04Q40.20 8.30 40.20 8.88L40.20 8.88L40.20 8.98L35.50 8.98Q35.47 8.86 35.47 8.64L35.47 8.64Q35.47 6.84 37.19 5.78Q38.90 4.73 42.10 4.73L42.10 4.73ZM43.87 12.17Q41.83 12.17 40.86 12.61Q39.89 13.06 39.89 13.80L39.89 13.80Q39.89 15.00 41.52 15.00L41.52 15.00Q42.46 15.00 43.16 14.50Q43.87 13.99 43.87 13.25L43.87 13.25L43.87 12.17ZM56.78 17.69L52.01 17.69L52.01 0.29L56.78 0.29L56.78 17.69ZM68.16 17.69L68.16 1.18L73.46 1.18L73.46 13.46L81.94 13.46L81.94 17.69L68.16 17.69ZM88.78 3.53L84.00 3.53L84.00 0.29L88.78 0.29L88.78 3.53ZM88.78 17.69L84.00 17.69L84.00 5.02L88.78 5.02L88.78 17.69ZM96.98 0Q97.51 0 98.30 0.13Q99.10 0.26 99.58 0.43L99.58 0.43L99.58 3.24L98.47 3.24Q97.70 3.24 97.42 3.53Q97.13 3.82 97.13 4.51L97.13 4.51L97.13 5.02L99.58 5.02L99.58 8.26L97.13 8.26L97.13 17.69L92.35 17.69L92.35 8.26L90.58 8.26L90.58 5.02L92.35 5.02L92.35 4.49Q92.35 2.04 93.55 1.02Q94.75 0 96.98 0L96.98 0ZM107.30 4.73Q110.78 4.73 112.62 6.36Q114.46 7.99 114.46 11.35L114.46 11.35L114.46 12.17L104.95 12.17Q104.95 13.54 105.56 14.23Q106.18 14.93 107.50 14.93L107.50 14.93Q108.70 14.93 109.26 14.42Q109.82 13.92 109.82 13.08L109.82 13.08L114.46 13.08Q114.46 15.38 112.70 16.68Q110.95 17.98 107.59 17.98L107.59 17.98Q104.06 17.98 102.12 16.33Q100.18 14.69 100.18 11.35L100.18 11.35Q100.18 8.09 102.07 6.41Q103.97 4.73 107.30 4.73L107.30 4.73ZM107.50 7.78Q105.24 7.78 104.98 9.91L104.98 9.91L109.63 9.91Q109.63 8.93 109.07 8.35Q108.50 7.78 107.50 7.78L107.50 7.78Z" transform="translate(44.705882352941174 15.156)"></path>
</svg>